<svg width="21" height="20" viewBox="0 0 21 20" fill="none" xmlns="http://www.w3.org/2000/svg">
<path d="M10.9 2.5C9.90547 3.49456 9.34673 4.84348 9.34673 6.25C9.34673 7.65652 9.90547 9.00544 10.9 10C11.8946 10.9946 13.2435 11.5533 14.65 11.5533C16.0566 11.5533 17.4055 10.9946 18.4 10C18.4 11.4834 17.9602 12.9334 17.1361 14.1668C16.3119 15.4001 15.1406 16.3614 13.7702 16.9291C12.3997 17.4968 10.8917 17.6453 9.43685 17.3559C7.98199 17.0665 6.64562 16.3522 5.59673 15.3033C4.54783 14.2544 3.83353 12.918 3.54414 11.4632C3.25475 10.0083 3.40327 8.50032 3.97093 7.12987C4.53859 5.75943 5.49988 4.58809 6.73325 3.76398C7.96662 2.93987 9.41667 2.5 10.9 2.5Z" stroke="#4F46E5" stroke-width="1.83333" stroke-linecap="round" stroke-linejoin="round"/>
</svg>
